<svg width="90" height="83" viewBox="0 0 90 83" fill="none" xmlns="http://www.w3.org/2000/svg">
<g filter="url(#filter0_d_17_48)">
<rect x="4" y="0.717285" width="82" height="73.7172" rx="36.8586" fill="#212121" shape-rendering="crispEdges"/>
<path d="M59.4594 43.0894L51.9218 39.7118L51.901 39.7022C51.5097 39.5348 51.0828 39.4676 50.659 39.5068C50.2352 39.5459 49.8278 39.69 49.4738 39.9262C49.432 39.9537 49.392 39.9836 49.3538 40.0158L45.4593 43.3358C42.9921 42.1374 40.4449 39.6094 39.2465 37.1742L42.5713 33.2205C42.6033 33.1805 42.6337 33.1405 42.6625 33.0973C42.8936 32.7442 43.0338 32.3394 43.0707 31.919C43.1075 31.4986 43.0398 31.0756 42.8737 30.6877V30.6685L39.4865 23.118C39.2669 22.6112 38.8892 22.1891 38.41 21.9145C37.9307 21.64 37.3755 21.5279 36.8273 21.5948C34.6592 21.8801 32.6691 22.9448 31.2287 24.5902C29.7883 26.2355 28.9961 28.3489 29 30.5357C29 43.2398 39.3361 53.5759 52.0402 53.5759C54.2269 53.5798 56.3403 52.7876 57.9857 51.3472C59.631 49.9068 60.6957 47.9167 60.981 45.7486C61.0481 45.2006 60.9362 44.6455 60.662 44.1663C60.3877 43.687 59.9659 43.3093 59.4594 43.0894ZM52.0402 51.0159C46.6103 51.01 41.4046 48.8503 37.5651 45.0108C33.7256 41.1713 31.566 35.9656 31.56 30.5357C31.554 28.9733 32.1169 27.4621 33.1436 26.2843C34.1703 25.1065 35.5906 24.3428 37.1393 24.1356C37.1386 24.142 37.1386 24.1484 37.1393 24.1548L40.4993 31.6749L37.1921 35.6333C37.1584 35.6719 37.1279 35.7131 37.1009 35.7565C36.8601 36.126 36.7188 36.5514 36.6908 36.9915C36.6628 37.4316 36.7489 37.8715 36.9409 38.2686C38.3905 41.2334 41.3777 44.1982 44.3745 45.6462C44.7745 45.8364 45.2169 45.9196 45.6586 45.8876C46.1003 45.8556 46.5261 45.7096 46.8945 45.4638C46.9357 45.4363 46.9752 45.4064 47.0129 45.3742L50.9026 42.0558L58.4226 45.4238H58.4402C58.2356 46.9747 57.473 48.3978 56.295 49.4271C55.117 50.4563 53.6044 51.0212 52.0402 51.0159Z" fill="white"/>
</g>
<defs>
<filter id="filter0_d_17_48" x="0" y="0.717285" width="90" height="81.7173" filterUnits="userSpaceOnUse" color-interpolation-filters="sRGB">
<feFlood flood-opacity="0" result="BackgroundImageFix"/>
<feColorMatrix in="SourceAlpha" type="matrix" values="0 0 0 0 0 0 0 0 0 0 0 0 0 0 0 0 0 0 127 0" result="hardAlpha"/>
<feOffset dy="4"/>
<feGaussianBlur stdDeviation="2"/>
<feComposite in2="hardAlpha" operator="out"/>
<feColorMatrix type="matrix" values="0 0 0 0 0 0 0 0 0 0 0 0 0 0 0 0 0 0 1 0"/>
<feBlend mode="normal" in2="BackgroundImageFix" result="effect1_dropShadow_17_48"/>
<feBlend mode="normal" in="SourceGraphic" in2="effect1_dropShadow_17_48" result="shape"/>
</filter>
</defs>
</svg>
