<svg width="68" height="68" viewBox="0 0 68 68" fill="none" xmlns="http://www.w3.org/2000/svg">
<g filter="url(#filter0_d_17_66)">
<rect x="4" width="60" height="60" rx="30" fill="#212121" shape-rendering="crispEdges"/>
<path d="M47.9986 15.707C47.6104 15.3534 47.1418 15.1217 46.6428 15.0365C46.1438 14.9513 45.633 15.0159 45.1648 15.2233L20.7257 26.0253C20.2032 26.2607 19.7584 26.6645 19.4504 27.1831C19.1424 27.7017 18.9856 28.3106 19.001 28.929C19.0164 29.5473 19.2032 30.146 19.5365 30.6455C19.8699 31.1449 20.3341 31.5216 20.8675 31.7256L25.811 33.6083L28.5657 43.5846C28.6034 43.7177 28.6581 43.8444 28.728 43.9609C28.7389 43.9788 28.7539 43.9907 28.7648 44.0101C28.8451 44.1326 28.9422 44.2409 29.0525 44.3311C29.0833 44.3575 29.1152 44.3825 29.148 44.4058C29.2772 44.4996 29.4202 44.5683 29.5707 44.6088L29.5885 44.6103L29.5966 44.6148C29.6878 44.6348 29.7805 44.6448 29.8735 44.6447L29.898 44.6402C30.0377 44.6376 30.1762 44.6114 30.3085 44.5625C30.3399 44.5506 30.3658 44.5327 30.3958 44.5178C30.4948 44.4733 30.5886 44.4162 30.6753 44.3476C30.7444 44.2833 30.8135 44.2191 30.8826 44.155L34.5674 39.7013L40.0632 44.3625C40.5469 44.775 41.1424 44.9993 41.7555 45C42.3982 44.9992 43.021 44.7565 43.5196 44.3126C44.0182 43.8686 44.3622 43.2505 44.4939 42.5619L48.9437 18.6483C49.0443 18.1103 49.0096 17.5524 48.8431 17.0344C48.6767 16.5164 48.3848 16.0576 47.9986 15.707ZM30.4135 34.0831C30.2247 34.2894 30.0956 34.5522 30.0426 34.8385L29.6198 37.084L28.5507 33.2126L34.0942 30.0519L30.4135 34.0831ZM41.7351 42.002L35.2397 36.4928C34.9679 36.2632 34.6271 36.1541 34.2852 36.1873C33.9432 36.2205 33.6252 36.3936 33.3946 36.672L32.2136 38.0978L32.6309 35.8777L42.2901 25.3026C42.5193 25.0502 42.6586 24.7164 42.6828 24.3615C42.7071 24.0065 42.6147 23.6538 42.4223 23.3668C42.23 23.0799 41.9503 22.8776 41.6338 22.7965C41.3173 22.7153 40.9847 22.7606 40.6959 22.9243L26.8338 30.8253L21.7539 28.7903L46.2722 18.054L41.7351 42.002Z" fill="white"/>
</g>
<defs>
<filter id="filter0_d_17_66" x="0" y="0" width="68" height="68" filterUnits="userSpaceOnUse" color-interpolation-filters="sRGB">
<feFlood flood-opacity="0" result="BackgroundImageFix"/>
<feColorMatrix in="SourceAlpha" type="matrix" values="0 0 0 0 0 0 0 0 0 0 0 0 0 0 0 0 0 0 127 0" result="hardAlpha"/>
<feOffset dy="4"/>
<feGaussianBlur stdDeviation="2"/>
<feComposite in2="hardAlpha" operator="out"/>
<feColorMatrix type="matrix" values="0 0 0 0 0 0 0 0 0 0 0 0 0 0 0 0 0 0 1 0"/>
<feBlend mode="normal" in2="BackgroundImageFix" result="effect1_dropShadow_17_66"/>
<feBlend mode="normal" in="SourceGraphic" in2="effect1_dropShadow_17_66" result="shape"/>
</filter>
</defs>
</svg>
