<svg width="177" height="31" viewBox="0 0 177 31" fill="none" xmlns="http://www.w3.org/2000/svg">
<path d="M27.5 15.5C27.5 8.6 21.9 3 15 3C8.1 3 2.5 8.6 2.5 15.5C2.5 21.55 6.8 26.5875 12.5 27.75V19.25H10V15.5H12.5V12.375C12.5 9.9625 14.4625 8 16.875 8H20V11.75H17.5C16.8125 11.75 16.25 12.3125 16.25 13V15.5H20V19.25H16.25V27.9375C22.5625 27.3125 27.5 21.9875 27.5 15.5Z" fill="white"/>
<path d="M56.4262 13.49L65.9194 2.375H63.6694L55.4288 12.0256L48.8438 2.375H41.25L51.2063 16.97L41.25 28.625H43.5L52.2037 18.4325L59.1581 28.625H66.7519L56.4262 13.49ZM53.3456 17.0975L52.3369 15.6444L44.31 4.08125H47.7656L54.2419 13.4131L55.2506 14.8663L63.6712 26.9975H60.2156L53.3456 17.0975Z" fill="white"/>
<path d="M87.75 3H98.25C102.25 3 105.5 6.25 105.5 10.25V20.75C105.5 22.6728 104.736 24.5169 103.377 25.8765C102.017 27.2362 100.173 28 98.25 28H87.75C83.75 28 80.5 24.75 80.5 20.75V10.25C80.5 8.32718 81.2638 6.48311 82.6235 5.12348C83.9831 3.76384 85.8272 3 87.75 3ZM87.5 5.5C86.3065 5.5 85.1619 5.97411 84.318 6.81802C83.4741 7.66193 83 8.80653 83 10V21C83 23.4875 85.0125 25.5 87.5 25.5H98.5C99.6935 25.5 100.838 25.0259 101.682 24.182C102.526 23.3381 103 22.1935 103 21V10C103 7.5125 100.987 5.5 98.5 5.5H87.5ZM99.5625 7.375C99.9769 7.375 100.374 7.53962 100.667 7.83265C100.96 8.12567 101.125 8.5231 101.125 8.9375C101.125 9.3519 100.96 9.74933 100.667 10.0424C100.374 10.3354 99.9769 10.5 99.5625 10.5C99.1481 10.5 98.7507 10.3354 98.4576 10.0424C98.1646 9.74933 98 9.3519 98 8.9375C98 8.5231 98.1646 8.12567 98.4576 7.83265C98.7507 7.53962 99.1481 7.375 99.5625 7.375ZM93 9.25C94.6576 9.25 96.2473 9.90848 97.4194 11.0806C98.5915 12.2527 99.25 13.8424 99.25 15.5C99.25 17.1576 98.5915 18.7473 97.4194 19.9194C96.2473 21.0915 94.6576 21.75 93 21.75C91.3424 21.75 89.7527 21.0915 88.5806 19.9194C87.4085 18.7473 86.75 17.1576 86.75 15.5C86.75 13.8424 87.4085 12.2527 88.5806 11.0806C89.7527 9.90848 91.3424 9.25 93 9.25ZM93 11.75C92.0054 11.75 91.0516 12.1451 90.3483 12.8483C89.6451 13.5516 89.25 14.5054 89.25 15.5C89.25 16.4946 89.6451 17.4484 90.3483 18.1517C91.0516 18.8549 92.0054 19.25 93 19.25C93.9946 19.25 94.9484 18.8549 95.6517 18.1517C96.3549 17.4484 96.75 16.4946 96.75 15.5C96.75 14.5054 96.3549 13.5516 95.6517 12.8483C94.9484 12.1451 93.9946 11.75 93 11.75Z" fill="white"/>
<path d="M137.75 7.775C136.895 6.79953 136.425 5.54679 136.425 4.25H132.562V19.75C132.533 20.5888 132.179 21.3833 131.575 21.9662C130.971 22.5491 130.164 22.8749 129.325 22.875C127.55 22.875 126.075 21.425 126.075 19.625C126.075 17.475 128.15 15.8625 130.287 16.525V12.575C125.975 12 122.2 15.35 122.2 19.625C122.2 23.7875 125.65 26.75 129.312 26.75C133.237 26.75 136.425 23.5625 136.425 19.625V11.7625C137.991 12.8873 139.872 13.4908 141.8 13.4875V9.625C141.8 9.625 139.45 9.7375 137.75 7.775Z" fill="white"/>
</svg>
